<svg xmlns="http://www.w3.org/2000/svg" viewBox="0 0 800 480" width="800" height="480">
  <defs>
    <linearGradient id="bg3" x1="0%" y1="0%" x2="100%" y2="100%">
      <stop offset="0%" stop-color="#090b0e"/>
      <stop offset="50%" stop-color="#0f1922"/>
      <stop offset="100%" stop-color="#08090d"/>
    </linearGradient>
    <linearGradient id="teal3" x1="0%" y1="0%" x2="100%" y2="100%">
      <stop offset="0%" stop-color="#4fd1c5"/>
      <stop offset="100%" stop-color="#285e61"/>
    </linearGradient>
    <pattern id="grid3" width="30" height="30" patternUnits="userSpaceOnUse">
      <path d="M 30 0 L 0 0 0 30" fill="none" stroke="rgba(255,255,255,0.03)" stroke-width="1"/>
    </pattern>
  </defs>

  <rect width="800" height="480" fill="url(#bg3)"/>
  <rect width="800" height="480" fill="url(#grid3)"/>

  <!-- Blobs -->
  <circle cx="200" cy="220" r="160" fill="#4fd1c5" opacity="0.08" filter="blur(60px)"/>
  <circle cx="650" cy="200" r="140" fill="#c9a664" opacity="0.08" filter="blur(60px)"/>

  <!-- Window Frame -->
  <rect x="60" y="50" width="680" height="380" rx="12" fill="#0e1117" stroke="rgba(79,209,197,0.25)" stroke-width="1.5"/>
  
  <!-- Header -->
  <rect x="60" y="50" width="680" height="42" rx="12" fill="#141822"/>
  <rect x="60" y="80" width="680" height="12" fill="#141822"/>
  <circle cx="85" cy="71" r="5" fill="#e05252"/>
  <circle cx="103" cy="71" r="5" fill="#e0a352"/>
  <circle cx="121" cy="71" r="5" fill="#48bb78"/>
  <text x="400" y="75" fill="#8892b0" font-family="'JetBrains Mono', monospace" font-size="12" text-anchor="middle">atliq-hardware // Power BI Executive Business Insights</text>

  <!-- Left Slicers & KPI -->
  <rect x="80" y="110" width="180" height="300" rx="8" fill="#121620" stroke="rgba(255,255,255,0.05)"/>
  <text x="100" y="135" fill="#4fd1c5" font-family="'JetBrains Mono', monospace" font-size="11" font-weight="bold">DAX KPI METRICS</text>

  <rect x="95" y="155" width="150" height="70" rx="6" fill="#182230" stroke="rgba(79,209,197,0.3)"/>
  <text x="110" y="175" fill="#8892b0" font-family="'JetBrains Mono', monospace" font-size="9">NET SALES (YTD)</text>
  <text x="110" y="205" fill="#4fd1c5" font-family="'Fraunces', serif" font-size="20" font-weight="bold">$192.4M</text>

  <rect x="95" y="235" width="150" height="70" rx="6" fill="#182230" stroke="rgba(201,166,100,0.3)"/>
  <text x="110" y="255" fill="#8892b0" font-family="'JetBrains Mono', monospace" font-size="9">NET PROFIT %</text>
  <text x="110" y="285" fill="#c9a664" font-family="'Fraunces', serif" font-size="20" font-weight="bold">14.8%</text>

  <rect x="95" y="315" width="150" height="75" rx="6" fill="#182230" stroke="rgba(72,187,120,0.3)"/>
  <text x="110" y="335" fill="#8892b0" font-family="'JetBrains Mono', monospace" font-size="9">FORECAST ACCURACY</text>
  <text x="110" y="365" fill="#48bb78" font-family="'Fraunces', serif" font-size="20" font-weight="bold">89.2%</text>

  <!-- Right Visual Panels -->
  <!-- Top Right Region Breakdown -->
  <rect x="280" y="110" width="440" height="140" rx="8" fill="#121620" stroke="rgba(255,255,255,0.05)"/>
  <text x="300" y="135" fill="#e8cf99" font-family="'Fraunces', serif" font-size="16">Regional Market Performance</text>
  
  <rect x="300" y="155" width="390" height="16" rx="4" fill="#1a202c"/>
  <rect x="300" y="155" width="280" height="16" rx="4" fill="#4fd1c5"/>
  <text x="305" y="167" fill="#0e1117" font-family="'JetBrains Mono', monospace" font-size="9" font-weight="bold">APAC: $118.2M (61.4%)</text>

  <rect x="300" y="180" width="390" height="16" rx="4" fill="#1a202c"/>
  <rect x="300" y="180" width="190" height="16" rx="4" fill="#c9a664"/>
  <text x="305" y="192" fill="#0e1117" font-family="'JetBrains Mono', monospace" font-size="9" font-weight="bold">EU: $48.6M (25.3%)</text>

  <rect x="300" y="205" width="390" height="16" rx="4" fill="#1a202c"/>
  <rect x="300" y="205" width="110" height="16" rx="4" fill="#48bb78"/>
  <text x="305" y="217" fill="#0e1117" font-family="'JetBrains Mono', monospace" font-size="9" font-weight="bold">NA: $25.6M (13.3%)</text>

  <!-- Bottom Trend Analysis -->
  <rect x="280" y="265" width="440" height="145" rx="8" fill="#121620" stroke="rgba(255,255,255,0.05)"/>
  <text x="300" y="290" fill="#e8cf99" font-family="'Fraunces', serif" font-size="16">Product Category Matrix &amp; Channel Growth</text>
  
  <rect x="300" y="310" width="120" height="85" rx="6" fill="#18202d"/>
  <text x="310" y="330" fill="#8892b0" font-family="'JetBrains Mono', monospace" font-size="9">STORAGE &amp; SSD</text>
  <text x="310" y="360" fill="#4fd1c5" font-family="'JetBrains Mono', monospace" font-size="16" font-weight="bold">+28.4%</text>

  <rect x="435" y="310" width="120" height="85" rx="6" fill="#18202d"/>
  <text x="445" y="330" fill="#8892b0" font-family="'JetBrains Mono', monospace" font-size="9">PERIPHERALS</text>
  <text x="445" y="360" fill="#c9a664" font-family="'JetBrains Mono', monospace" font-size="16" font-weight="bold">+19.1%</text>

  <rect x="570" y="310" width="120" height="85" rx="6" fill="#18202d"/>
  <text x="580" y="330" fill="#8892b0" font-family="'JetBrains Mono', monospace" font-size="9">NETWORKING</text>
  <text x="580" y="360" fill="#48bb78" font-family="'JetBrains Mono', monospace" font-size="16" font-weight="bold">+14.6%</text>
</svg>
